<?xml version="1.0" encoding="UTF-8" standalone="no"?>
<!-- Created with Inkscape (http://www.inkscape.org/) -->

<svg
   xmlns:dc="http://purl.org/dc/elements/1.1/"
   xmlns:cc="http://creativecommons.org/ns#"
   xmlns:rdf="http://www.w3.org/1999/02/22-rdf-syntax-ns#"
   xmlns:svg="http://www.w3.org/2000/svg"
   xmlns="http://www.w3.org/2000/svg"
   xmlns:sodipodi="http://sodipodi.sourceforge.net/DTD/sodipodi-0.dtd"
   xmlns:inkscape="http://www.inkscape.org/namespaces/inkscape"
   width="210mm"
   height="297mm"
   viewBox="0 0 744.09448819 1052.3622047"
   id="svg6310"
   version="1.1"
   inkscape:version="0.91 r13725"
   sodipodi:docname="Frente2.svg">
  <defs
     id="defs6312">
    <clipPath
       clipPathUnits="userSpaceOnUse"
       id="clipPath3934-2">
      <rect
         style="fill:#696969;fill-opacity:0.90588235;stroke:#000000;stroke-width:1.9610914;stroke-miterlimit:4;stroke-dasharray:none;stroke-opacity:1"
         id="rect3936-7"
         width="738.01062"
         height="742.85712"
         x="-769.43915"
         y="455.21933"
         ry="9.0354605" />
    </clipPath>
    <clipPath
       clipPathUnits="userSpaceOnUse"
       id="clipPath3934-3">
      <rect
         style="fill:#696969;fill-opacity:0.90588235;stroke:#000000;stroke-width:1.9610914;stroke-miterlimit:4;stroke-dasharray:none;stroke-opacity:1"
         id="rect3936-6"
         width="738.01062"
         height="742.85712"
         x="-769.43915"
         y="455.21933"
         ry="9.0354605" />
    </clipPath>
    <clipPath
       clipPathUnits="userSpaceOnUse"
       id="clipPath3934-2-7">
      <rect
         style="fill:#696969;fill-opacity:0.90588235;stroke:#000000;stroke-width:1.9610914;stroke-miterlimit:4;stroke-dasharray:none;stroke-opacity:1"
         id="rect3936-7-2"
         width="738.01062"
         height="742.85712"
         x="-769.43915"
         y="455.21933"
         ry="9.0354605" />
    </clipPath>
    <clipPath
       clipPathUnits="userSpaceOnUse"
       id="clipPath3934-3-7">
      <rect
         style="fill:#696969;fill-opacity:0.90588235;stroke:#000000;stroke-width:1.9610914;stroke-miterlimit:4;stroke-dasharray:none;stroke-opacity:1"
         id="rect3936-6-2"
         width="738.01062"
         height="742.85712"
         x="-769.43915"
         y="455.21933"
         ry="9.0354605" />
    </clipPath>
  </defs>
  <sodipodi:namedview
     id="base"
     pagecolor="#ffffff"
     bordercolor="#666666"
     borderopacity="1.0"
     inkscape:pageopacity="0.0"
     inkscape:pageshadow="2"
     inkscape:zoom="0.35"
     inkscape:cx="642.89903"
     inkscape:cy="520"
     inkscape:document-units="px"
     inkscape:current-layer="layer1"
     showgrid="false"
     inkscape:window-width="1366"
     inkscape:window-height="716"
     inkscape:window-x="0"
     inkscape:window-y="0"
     inkscape:window-maximized="1" />
  <metadata
     id="metadata6315">
    <rdf:RDF>
      <cc:Work
         rdf:about="">
        <dc:format>image/svg+xml</dc:format>
        <dc:type
           rdf:resource="http://purl.org/dc/dcmitype/StillImage" />
        <dc:title></dc:title>
      </cc:Work>
    </rdf:RDF>
  </metadata>
  <g
     inkscape:label="Capa 1"
     inkscape:groupmode="layer"
     id="layer1">
    <path
       inkscape:connector-curvature="0"
       style="fill:#000000"
       d="m 614.18035,132.0285 -16.09738,14.93282 c -30.52804,26.96267 -69.30291,42.89506 -107.58332,55.3303 -8.59119,0.9719 -17.72737,-8.55169 -25.17691,0.044 -9.29564,3.05094 -24.7317,2.28101 -25.54254,15.38984 -20.39681,12.9109 -46.85072,15.36969 -66.67125,29.89949 3.97075,4.25793 13.60577,-2.80384 18.83614,-3.27703 17.39147,-4.56178 33.86716,-16.3474 52.0465,-16.28358 7.19692,21.64048 6.63263,46.29861 7.90482,69.22382 -0.52514,15.04645 -17.39232,23.37641 -25.91832,34.10411 -9.70998,11.33906 -19.96532,20.75128 -35.53949,14.73646 -15.46327,-3.90773 -31.44636,12.91618 -44.93725,0.19297 -10.17414,-7.43329 -17.93605,-23.30236 -6.37124,-33.25437 13.63907,-17.68093 33.84515,-40.8765 23.50793,-64.55541 -20.85312,-19.32003 -49.96817,-27.71057 -77.12864,-34.23615 -30.17123,-1.66494 -52.18007,-27.14551 -82.42672,-29.52709 -32.16973,-4.48296 -67.33272,-4.76987 -97.23088,9.2725 -7.450519,4.14206 0.18994,11.42769 6.33062,9.9665 33.9595,3.17184 65.79662,0.61599 75.01509,0.92537 8.20588,-0.39324 45.50109,10.53768 53.23922,22.25417 -2.12895,8.60988 -15.75462,-1.23766 -21.42594,0.22682 -35.61674,-7.5104 -76.21168,-7.12334 -105.47083,17.53954 -12.18402,10.66195 -29.006169,21.05536 -32.868469,37.61472 6.47105,7.64651 18.03338,-3.56161 24.807909,-6.28322 21.54621,-13.17136 42.03958,-31.47286 68.93945,-30.59009 8.95414,0.59788 23.24389,-3.4486 29.21902,4.74289 -0.0593,12.17904 -17.44379,7.62733 -25.07534,10.43367 -42.3541,4.67065 -67.87247,45.8132 -76.22135,84.072 -0.0537,3.7499 -5.026979,15.15722 0.44687,15.71146 19.66466,-26.86628 34.77316,-63.14589 68.48581,-75.09066 11.59909,-2.34256 30.11829,-6.22824 37.5944,5.53845 -1.65059,10.21436 -16.58377,12.05689 -23.62303,17.67834 -33.94416,21.34985 -67.96889,54.53459 -67.15197,97.65746 0.98245,9.87236 11.08136,-2.19182 12.84744,-5.58923 13.56088,-21.48156 22.8499,-48.74655 48.89472,-58.44146 14.99937,-5.62904 32.60677,-15.62932 48.74579,-10.36935 1.0617,6.06109 -11.86894,6.34897 -15.59974,8.98814 -35.65022,9.73154 -61.23385,43.33098 -63.53302,79.78274 -2.68259,7.4844 4.97772,14.30925 11.24616,8.52095 15.6038,-22.99596 23.8958,-54.11495 51.46084,-66.66109 31.35051,-15.07713 71.57655,-22.59821 103.47011,-5.30824 33.6094,24.71339 61.09082,59.86248 74.38648,99.59386 2.99835,24.10558 5.67419,50.13275 -2.24449,73.51985 -9.67726,28.42601 -34.96623,49.00894 -42.91958,77.84631 6.20976,13.75658 6.28223,28.89289 3.38198,43.72531 -2.81701,8.56937 0.71334,23.83062 -9.03552,28.39639 -20.45011,-6.88442 -34.6866,-28.27336 -55.679,-33.65724 -9.94327,18.00533 -12.23186,40.31401 -14.48257,60.70288 0.7153,7.55571 -0.84835,24.32321 10.14593,24.25947 16.57841,-10.98857 13.74997,-34.74755 21.39207,-50.88194 16.15035,2.32762 32.94035,17.58849 49.47026,10.69774 4.83928,-2.19998 6.221,-14.1518 11.56099,-11.90632 6.5495,29.65176 -19.50537,51.17246 -30.92863,75.44272 -4.20223,14.06702 10.30095,25.18944 23.45714,24.61496 21.39141,5.5456 47.11763,7.02922 66.4309,-5.16944 8.36452,-8.71044 -8.08068,-15.52078 -14.7737,-17.00467 -14.41795,-4.77188 -31.01436,-4.65277 -44.84585,-8.60897 10.3959,-26.02124 21.06227,-52.39294 21.45301,-80.89653 -0.18865,-14.34362 10.62599,-26.01006 24.90609,-26.96778 27.98205,-6.35427 35.96401,-37.62867 46.69764,-60.23568 17.48998,-43.65737 19.15152,-93.05235 10.14931,-138.83358 -6.49911,-27.78042 -18.97531,-53.85344 -32.39449,-78.61141 15.02979,-14.19115 34.26438,-25.36974 49.60904,-39.92355 9.0245,-9.04408 24.12191,-18.05094 24.35089,-31.48383 -6.80821,-20.95514 -21.88187,-40.59701 -22.41786,-63.10309 3.23052,-7.17113 10.27486,-12.48974 10.65374,-20.93845 21.86628,-12.85798 48.31979,-16.82225 72.30789,-24.91285 20.15906,-6.28201 41.59301,-7.86301 61.90128,-12.41411 -9.71123,-10.48959 -12.98067,-25.01731 -13.97816,-38.56261 z M 463.76886,238.9212 c 12.4644,17.95299 22.8918,38.6637 28.79924,59.74143 -3.35427,9.46587 -16.06883,14.17803 -23.80245,17.43799 -2.74651,-25.17336 -5.22612,-50.8621 -6.22568,-76.09949 0.17421,-0.51532 0.56764,-1.25434 1.22889,-1.07993 z"
       id="path3708"
       sodipodi:nodetypes="cccccccccccccccccccccccccccccccccccccccccccccccccccccccccccccccccccccccccc"
       inkscape:export-filename="/home/sancho/Escritorio/Camisa/Frente2.png"
       inkscape:export-xdpi="269.93311"
       inkscape:export-ydpi="269.93311" />
    <text
       xml:space="preserve"
       style="font-style:normal;font-weight:normal;font-size:40px;line-height:125%;font-family:sans-serif;letter-spacing:0px;word-spacing:0px;fill:#000000;fill-opacity:1;stroke:none;stroke-width:1px;stroke-linecap:butt;stroke-linejoin:miter;stroke-opacity:1;"
       x="67.109375"
       y="959.07001"
       id="text4668"
       sodipodi:linespacing="125%"
       inkscape:export-filename="/home/sancho/Escritorio/Camisa/Frente2.png"
       inkscape:export-xdpi="269.93311"
       inkscape:export-ydpi="269.93311"><tspan
         sodipodi:role="line"
         id="tspan4670"
         x="67.109375"
         y="959.07001"
         style="font-style:normal;font-variant:normal;font-weight:normal;font-stretch:normal;font-size:225px;font-family:Arimo;-inkscape-font-specification:Arimo;fill:#000000;">GLUD</tspan></text>
  </g>
</svg>
